<svg xmlns="http://www.w3.org/2000/svg" width="16" height="16">
          <g>
            <defs>
              <linearGradient id="idgwRksbrWXg1233389095" gradientTransform="rotate(0, 0.5, 0.5)">
                <stop offset="0" stop-color="rgb(250,143,33)" stop-opacity="1"></stop>
                <stop offset="1" stop-color="rgb(216,45,126)" stop-opacity="1"></stop>
              </linearGradient>
            </defs>
            <path d="M 5.334 8 C 5.334 6.527 6.527 5.333 8 5.333 C 9.473 5.333 10.667 6.527 10.667 8 C 10.667 9.473 9.473 10.667 8 10.667 C 6.527 10.667 5.334 9.473 5.334 8 M 3.892 8 C 3.892 10.269 5.731 12.108 8 12.108 C 10.269 12.108 12.108 10.269 12.108 8 C 12.108 5.731 10.269 3.892 8 3.892 C 5.731 3.892 3.892 5.731 3.892 8 M 11.311 3.729 C 11.31 4.259 11.74 4.689 12.27 4.69 C 12.8 4.69 13.23 4.26 13.231 3.73 C 13.231 3.2 12.801 2.77 12.271 2.77 L 12.271 2.77 C 11.741 2.77 11.311 3.199 11.311 3.729 M 4.768 14.512 C 3.988 14.476 3.564 14.346 3.282 14.237 C 2.909 14.091 2.642 13.918 2.362 13.638 C 2.082 13.358 1.909 13.092 1.764 12.719 C 1.654 12.437 1.524 12.013 1.489 11.233 C 1.45 10.39 1.442 10.136 1.442 8 C 1.442 5.864 1.45 5.611 1.489 4.767 C 1.524 3.987 1.655 3.564 1.764 3.281 C 1.909 2.908 2.082 2.641 2.362 2.361 C 2.642 2.081 2.908 1.908 3.282 1.763 C 3.564 1.653 3.988 1.523 4.768 1.488 C 5.611 1.449 5.865 1.441 8 1.441 C 10.135 1.441 10.389 1.45 11.233 1.488 C 12.013 1.523 12.436 1.654 12.719 1.763 C 13.092 1.908 13.359 2.081 13.639 2.361 C 13.919 2.641 14.092 2.908 14.237 3.281 C 14.347 3.563 14.477 3.987 14.512 4.767 C 14.551 5.611 14.559 5.864 14.559 8 C 14.559 10.136 14.551 10.389 14.512 11.233 C 14.477 12.013 14.346 12.437 14.237 12.719 C 14.092 13.092 13.919 13.359 13.639 13.638 C 13.359 13.918 13.092 14.091 12.719 14.237 C 12.437 14.346 12.013 14.476 11.233 14.512 C 10.39 14.551 10.136 14.558 8 14.558 C 5.864 14.558 5.611 14.551 4.768 14.512 M 4.702 0.048 C 3.85 0.087 3.268 0.222 2.76 0.42 C 2.234 0.624 1.788 0.898 1.343 1.343 C 0.898 1.787 0.624 2.234 0.42 2.76 C 0.222 3.268 0.087 3.85 0.048 4.702 C 0.009 5.555 0 5.827 0 8 C 0 10.173 0.009 10.445 0.048 11.298 C 0.087 12.15 0.222 12.732 0.42 13.24 C 0.624 13.766 0.898 14.213 1.343 14.657 C 1.788 15.102 2.234 15.375 2.76 15.58 C 3.269 15.778 3.85 15.913 4.702 15.952 C 5.555 15.99 5.827 16 8 16 C 10.173 16 10.445 15.991 11.298 15.952 C 12.15 15.913 12.732 15.778 13.24 15.58 C 13.766 15.375 14.212 15.102 14.657 14.657 C 15.102 14.213 15.375 13.766 15.58 13.24 C 15.778 12.732 15.913 12.15 15.952 11.298 C 15.99 10.445 15.999 10.173 15.999 8 C 15.999 5.827 15.99 5.555 15.952 4.702 C 15.913 3.85 15.778 3.268 15.58 2.76 C 15.375 2.234 15.102 1.788 14.657 1.343 C 14.213 0.898 13.766 0.624 13.241 0.42 C 12.732 0.222 12.15 0.087 11.299 0.048 C 10.446 0.01 10.173 0 8.001 0 C 5.828 0 5.555 0.009 4.702 0.048" fill="url(&quot;#idgwRksbrWXg1233389095&quot;)"></path>
          </g>
          <g>
            <defs>
              <linearGradient id="idsOM0RnUhUg663173732" gradientTransform="rotate(0, 0.5, 0.5)">
                <stop offset="0" stop-color="rgba(140,58,170,0)" stop-opacity="0"></stop>
                <stop offset="1" stop-color="rgb(140,58,170)" stop-opacity="1"></stop>
              </linearGradient>
            </defs>
            <path d="M 5.334 8 C 5.334 6.527 6.527 5.333 8 5.333 C 9.473 5.333 10.667 6.527 10.667 8 C 10.667 9.473 9.473 10.667 8 10.667 C 6.527 10.667 5.334 9.473 5.334 8 M 3.892 8 C 3.892 10.269 5.731 12.108 8 12.108 C 10.269 12.108 12.108 10.269 12.108 8 C 12.108 5.731 10.269 3.892 8 3.892 C 5.731 3.892 3.892 5.731 3.892 8 M 11.311 3.729 C 11.31 4.259 11.74 4.689 12.27 4.69 C 12.8 4.69 13.23 4.26 13.231 3.73 C 13.231 3.2 12.801 2.77 12.271 2.77 L 12.271 2.77 C 11.741 2.77 11.311 3.199 11.311 3.729 M 4.768 14.512 C 3.988 14.476 3.564 14.346 3.282 14.237 C 2.909 14.091 2.642 13.918 2.362 13.638 C 2.082 13.358 1.909 13.092 1.764 12.719 C 1.654 12.437 1.524 12.013 1.489 11.233 C 1.45 10.39 1.442 10.136 1.442 8 C 1.442 5.864 1.45 5.611 1.489 4.767 C 1.524 3.987 1.655 3.564 1.764 3.281 C 1.909 2.908 2.082 2.641 2.362 2.361 C 2.642 2.081 2.908 1.908 3.282 1.763 C 3.564 1.653 3.988 1.523 4.768 1.488 C 5.611 1.449 5.865 1.441 8 1.441 C 10.135 1.441 10.389 1.45 11.233 1.488 C 12.013 1.523 12.436 1.654 12.719 1.763 C 13.092 1.908 13.359 2.081 13.639 2.361 C 13.919 2.641 14.092 2.908 14.237 3.281 C 14.347 3.563 14.477 3.987 14.512 4.767 C 14.551 5.611 14.559 5.864 14.559 8 C 14.559 10.136 14.551 10.389 14.512 11.233 C 14.477 12.013 14.346 12.437 14.237 12.719 C 14.092 13.092 13.919 13.359 13.639 13.638 C 13.359 13.918 13.092 14.091 12.719 14.237 C 12.437 14.346 12.013 14.476 11.233 14.512 C 10.39 14.551 10.136 14.558 8 14.558 C 5.864 14.558 5.611 14.551 4.768 14.512 M 4.702 0.048 C 3.85 0.087 3.268 0.222 2.76 0.42 C 2.234 0.624 1.788 0.898 1.343 1.343 C 0.898 1.787 0.624 2.234 0.42 2.76 C 0.222 3.268 0.087 3.85 0.048 4.702 C 0.009 5.555 0 5.827 0 8 C 0 10.173 0.009 10.445 0.048 11.298 C 0.087 12.15 0.222 12.732 0.42 13.24 C 0.624 13.766 0.898 14.213 1.343 14.657 C 1.788 15.102 2.234 15.375 2.76 15.58 C 3.269 15.778 3.85 15.913 4.702 15.952 C 5.555 15.99 5.827 16 8 16 C 10.173 16 10.445 15.991 11.298 15.952 C 12.15 15.913 12.732 15.778 13.24 15.58 C 13.766 15.375 14.212 15.102 14.657 14.657 C 15.102 14.213 15.375 13.766 15.58 13.24 C 15.778 12.732 15.913 12.15 15.952 11.298 C 15.99 10.445 15.999 10.173 15.999 8 C 15.999 5.827 15.99 5.555 15.952 4.702 C 15.913 3.85 15.778 3.268 15.58 2.76 C 15.375 2.234 15.102 1.788 14.657 1.343 C 14.213 0.898 13.766 0.624 13.241 0.42 C 12.732 0.222 12.15 0.087 11.299 0.048 C 10.446 0.01 10.173 0 8.001 0 C 5.828 0 5.555 0.009 4.702 0.048" fill="url(&quot;#idsOM0RnUhUg663173732&quot;)"></path>
          </g>
        </svg>